# xmcd
#
# Track frame offsets:
#	150
#	12382
#	23575
#	34737
#	46457
#	57992
#	74947
#	87855
#	100682
#	119690
#	133870
#	147472
#	158317
#	171409
#	185097
#	197320
#	211652
#	224062
#	236565
#	254434
#
# Disc length: 3559
#
# Revision: 3
# Processed by: cddbd v1.5.1PL0 Copyright (c) Steve Scherf et al.
# Submitted via: CDex 1.51
# Normalized: r2:TDELIM( - )
#
DISCID=2b0de514
DTITLE=Compilations - Best Of The Blues
DYEAR=1900
DGENRE=
TTITLE0=Joe Turner - Stormy Monday Blues
TTITLE1=B.B. King - Catfish Blues
TTITLE2=Roy Milton - Information Blues
TTITLE3=Billie Holiday - Nice Work If You Can Get It
TTITLE4=John Lee Hooker - Boom Boom
TTITLE5=Johnny Otis - Barrelhouse Blues
TTITLE6=John Lee Hooker - Frisco Blues
TTITLE7=B.B. King - Please Love Me
TTITLE8=Johnny Otis - Slo Fuse
TTITLE9=Billie Holiday - God Bless The Child
TTITLE10=John Lee Hooker - Trouble Blues
TTITLE11=Ray Charles - Hey Now
TTITLE12=Bo Diddley - Cracklin'
TTITLE13=Louis Jordan - I Got The Walkin' Blues
TTITLE14=John Lee Hooker - I'm Mad Again
TTITLE15=Ray Charles - Walkin' And Talkin'
TTITLE16=Bo Diddley - Can I Go Home With You
TTITLE17=Ray Charles - C.C. Rider
TTITLE18=John Lee Hooker - Wednesday Evening Blues
TTITLE19=B.B. King - Payin' The Cost To Be The Boss
EXTD=
EXTT0=by Joe Turner\n
EXTT1=by B.B. King
EXTT2=by Roy Milton
EXTT3=by Billie Holiday
EXTT4=by John Lee Hooker
EXTT5=by Johnny Otis
EXTT6=by John Lee Hooker
EXTT7=by B.B. King
EXTT8=by Johnny Otis\n
EXTT9=by Billie Holiday
EXTT10=by John Lee Hooker
EXTT11=by Ray Charles
EXTT12=by Bo Diddley
EXTT13=by Louis Jordan
EXTT14=by John Lee Hooker
EXTT15=by Ray Charles
EXTT16=by Bo Diddley
EXTT17=by Ray Charles
EXTT18=by John Lee Hooker
EXTT19=by B.B. King
PLAYORDER=
